<mxfile host="Electron" agent="Mozilla/5.0 (Windows NT 10.0; Win64; x64) AppleWebKit/537.36 (KHTML, like Gecko) draw.io/24.2.5 Chrome/120.0.6099.109 Electron/28.1.0 Safari/537.36" modified="2024-10-17T05:34:50.022Z" etag="JWt95bY5b_38A5UNWtLI" version="24.2.5" type="device" pages="4">
  <diagram id="K7kYU6lOCLHv16nGBVik" name="компоненты">
    <mxGraphModel dx="780" dy="504" grid="1" gridSize="10" guides="1" tooltips="1" connect="1" arrows="1" fold="1" page="1" pageScale="1" pageWidth="827" pageHeight="1169" math="0" shadow="0">
      <root>
        <mxCell id="0" />
        <mxCell id="1" parent="0" />
        <mxCell id="QLMF7WWkl8C_RHj1QrkC-9" style="edgeStyle=orthogonalEdgeStyle;rounded=0;orthogonalLoop=1;jettySize=auto;html=1;exitX=0.5;exitY=1;exitDx=0;exitDy=0;" parent="1" source="QLMF7WWkl8C_RHj1QrkC-1" target="QLMF7WWkl8C_RHj1QrkC-2" edge="1">
          <mxGeometry relative="1" as="geometry" />
        </mxCell>
        <mxCell id="QLMF7WWkl8C_RHj1QrkC-1" value="Пользовательский интерфейс (Frontend)" style="rounded=0;whiteSpace=wrap;html=1;" parent="1" vertex="1">
          <mxGeometry x="130" y="30" width="120" height="60" as="geometry" />
        </mxCell>
        <mxCell id="QLMF7WWkl8C_RHj1QrkC-10" style="edgeStyle=orthogonalEdgeStyle;rounded=0;orthogonalLoop=1;jettySize=auto;html=1;exitX=0.5;exitY=1;exitDx=0;exitDy=0;" parent="1" source="QLMF7WWkl8C_RHj1QrkC-2" target="QLMF7WWkl8C_RHj1QrkC-3" edge="1">
          <mxGeometry relative="1" as="geometry" />
        </mxCell>
        <mxCell id="QLMF7WWkl8C_RHj1QrkC-11" style="edgeStyle=orthogonalEdgeStyle;rounded=0;orthogonalLoop=1;jettySize=auto;html=1;exitX=0.5;exitY=1;exitDx=0;exitDy=0;" parent="1" source="QLMF7WWkl8C_RHj1QrkC-2" target="QLMF7WWkl8C_RHj1QrkC-4" edge="1">
          <mxGeometry relative="1" as="geometry" />
        </mxCell>
        <mxCell id="QLMF7WWkl8C_RHj1QrkC-2" value="API(Backend)" style="rounded=0;whiteSpace=wrap;html=1;" parent="1" vertex="1">
          <mxGeometry x="130" y="130" width="120" height="60" as="geometry" />
        </mxCell>
        <mxCell id="QLMF7WWkl8C_RHj1QrkC-12" style="edgeStyle=orthogonalEdgeStyle;rounded=0;orthogonalLoop=1;jettySize=auto;html=1;exitX=0.5;exitY=1;exitDx=0;exitDy=0;" parent="1" source="QLMF7WWkl8C_RHj1QrkC-3" target="QLMF7WWkl8C_RHj1QrkC-5" edge="1">
          <mxGeometry relative="1" as="geometry" />
        </mxCell>
        <mxCell id="QLMF7WWkl8C_RHj1QrkC-3" value="Система хранения данных" style="rounded=0;whiteSpace=wrap;html=1;" parent="1" vertex="1">
          <mxGeometry x="130" y="230" width="120" height="60" as="geometry" />
        </mxCell>
        <mxCell id="QLMF7WWkl8C_RHj1QrkC-4" value="Служба аутентификации" style="rounded=0;whiteSpace=wrap;html=1;" parent="1" vertex="1">
          <mxGeometry x="280" y="230" width="120" height="60" as="geometry" />
        </mxCell>
        <mxCell id="QLMF7WWkl8C_RHj1QrkC-14" style="edgeStyle=orthogonalEdgeStyle;rounded=0;orthogonalLoop=1;jettySize=auto;html=1;exitX=0.5;exitY=1;exitDx=0;exitDy=0;" parent="1" source="QLMF7WWkl8C_RHj1QrkC-5" target="QLMF7WWkl8C_RHj1QrkC-6" edge="1">
          <mxGeometry relative="1" as="geometry" />
        </mxCell>
        <mxCell id="QLMF7WWkl8C_RHj1QrkC-5" value="СУБД" style="rounded=0;whiteSpace=wrap;html=1;" parent="1" vertex="1">
          <mxGeometry x="130" y="330" width="120" height="60" as="geometry" />
        </mxCell>
        <mxCell id="QLMF7WWkl8C_RHj1QrkC-15" style="edgeStyle=orthogonalEdgeStyle;rounded=0;orthogonalLoop=1;jettySize=auto;html=1;exitX=0.5;exitY=1;exitDx=0;exitDy=0;" parent="1" source="QLMF7WWkl8C_RHj1QrkC-6" target="QLMF7WWkl8C_RHj1QrkC-7" edge="1">
          <mxGeometry relative="1" as="geometry" />
        </mxCell>
        <mxCell id="QLMF7WWkl8C_RHj1QrkC-6" value="Система обработки видео" style="rounded=0;whiteSpace=wrap;html=1;" parent="1" vertex="1">
          <mxGeometry x="130" y="420" width="120" height="60" as="geometry" />
        </mxCell>
        <mxCell id="QLMF7WWkl8C_RHj1QrkC-16" style="edgeStyle=orthogonalEdgeStyle;rounded=0;orthogonalLoop=1;jettySize=auto;html=1;exitX=0.5;exitY=1;exitDx=0;exitDy=0;" parent="1" source="QLMF7WWkl8C_RHj1QrkC-7" target="QLMF7WWkl8C_RHj1QrkC-8" edge="1">
          <mxGeometry relative="1" as="geometry" />
        </mxCell>
        <mxCell id="QLMF7WWkl8C_RHj1QrkC-7" value="Служба безопасности" style="rounded=0;whiteSpace=wrap;html=1;" parent="1" vertex="1">
          <mxGeometry x="130" y="510" width="120" height="60" as="geometry" />
        </mxCell>
        <mxCell id="QLMF7WWkl8C_RHj1QrkC-8" value="Служба мониторинга" style="rounded=0;whiteSpace=wrap;html=1;" parent="1" vertex="1">
          <mxGeometry x="130" y="600" width="120" height="60" as="geometry" />
        </mxCell>
      </root>
    </mxGraphModel>
  </diagram>
  <diagram id="s868FTee118Cd3CI0w6o" name="развертывания">
    <mxGraphModel dx="780" dy="504" grid="1" gridSize="10" guides="1" tooltips="1" connect="1" arrows="1" fold="1" page="1" pageScale="1" pageWidth="827" pageHeight="1169" math="0" shadow="0">
      <root>
        <mxCell id="0" />
        <mxCell id="1" parent="0" />
        <mxCell id="XFUY8K0ZkMKYwquzWxu0-11" value="Устройства пользователя" style="verticalAlign=top;align=left;spacingTop=8;spacingLeft=2;spacingRight=12;shape=cube;size=10;direction=south;fontStyle=4;html=1;whiteSpace=wrap;fillColor=none;" parent="1" vertex="1">
          <mxGeometry x="70" y="60" width="200" height="190" as="geometry" />
        </mxCell>
        <mxCell id="XFUY8K0ZkMKYwquzWxu0-21" style="edgeStyle=orthogonalEdgeStyle;rounded=0;orthogonalLoop=1;jettySize=auto;html=1;exitX=1;exitY=0.5;exitDx=0;exitDy=0;fontFamily=Helvetica;fontSize=12;fontColor=default;fontStyle=4;dashed=1;startArrow=classic;startFill=1;" parent="1" source="XFUY8K0ZkMKYwquzWxu0-12" target="XFUY8K0ZkMKYwquzWxu0-20" edge="1">
          <mxGeometry relative="1" as="geometry" />
        </mxCell>
        <mxCell id="XFUY8K0ZkMKYwquzWxu0-22" value="Шифрованный канал" style="edgeLabel;html=1;align=center;verticalAlign=middle;resizable=0;points=[];strokeColor=default;spacingLeft=2;spacingRight=12;spacingTop=8;fontFamily=Helvetica;fontSize=12;fontColor=default;fontStyle=4;labelBackgroundColor=default;fillColor=none;" parent="XFUY8K0ZkMKYwquzWxu0-21" vertex="1" connectable="0">
          <mxGeometry x="-0.0055" y="3" relative="1" as="geometry">
            <mxPoint as="offset" />
          </mxGeometry>
        </mxCell>
        <mxCell id="XFUY8K0ZkMKYwquzWxu0-12" value="Пользовательское приложение" style="ellipse;whiteSpace=wrap;html=1;fillColor=none;" parent="1" vertex="1">
          <mxGeometry x="86" y="160" width="128" height="45" as="geometry" />
        </mxCell>
        <mxCell id="XFUY8K0ZkMKYwquzWxu0-16" value="&lt;div style=&quot;text-align: center;&quot;&gt;Frontend&lt;/div&gt;" style="verticalAlign=top;align=left;spacingTop=8;spacingLeft=2;spacingRight=12;shape=cube;size=10;direction=south;fontStyle=4;html=1;whiteSpace=wrap;fillColor=none;" parent="1" vertex="1">
          <mxGeometry x="360" y="30" width="170" height="150" as="geometry" />
        </mxCell>
        <mxCell id="XFUY8K0ZkMKYwquzWxu0-27" style="edgeStyle=orthogonalEdgeStyle;rounded=0;orthogonalLoop=1;jettySize=auto;html=1;exitX=0.5;exitY=1;exitDx=0;exitDy=0;dashed=1;strokeColor=default;align=center;verticalAlign=middle;fontFamily=Helvetica;fontSize=12;fontColor=default;fontStyle=4;labelBackgroundColor=default;endArrow=classic;" parent="1" source="XFUY8K0ZkMKYwquzWxu0-20" target="XFUY8K0ZkMKYwquzWxu0-26" edge="1">
          <mxGeometry relative="1" as="geometry" />
        </mxCell>
        <mxCell id="XFUY8K0ZkMKYwquzWxu0-28" value="REST API" style="edgeLabel;html=1;align=center;verticalAlign=middle;resizable=0;points=[];strokeColor=default;spacingLeft=2;spacingRight=12;spacingTop=8;fontFamily=Helvetica;fontSize=12;fontColor=default;fontStyle=4;labelBackgroundColor=default;fillColor=none;" parent="XFUY8K0ZkMKYwquzWxu0-27" vertex="1" connectable="0">
          <mxGeometry x="-0.1762" y="1" relative="1" as="geometry">
            <mxPoint as="offset" />
          </mxGeometry>
        </mxCell>
        <mxCell id="XFUY8K0ZkMKYwquzWxu0-20" value="web-сервер приложения" style="shape=module;align=left;spacingLeft=20;align=center;verticalAlign=top;whiteSpace=wrap;html=1;strokeColor=default;spacingRight=12;spacingTop=8;fontFamily=Helvetica;fontSize=12;fontColor=default;fontStyle=4;fillColor=none;" parent="1" vertex="1">
          <mxGeometry x="384" y="90" width="116" height="70" as="geometry" />
        </mxCell>
        <mxCell id="XFUY8K0ZkMKYwquzWxu0-25" value="&lt;div style=&quot;text-align: center;&quot;&gt;Backend&lt;/div&gt;" style="verticalAlign=top;align=left;spacingTop=8;spacingLeft=2;spacingRight=12;shape=cube;size=10;direction=south;fontStyle=4;html=1;whiteSpace=wrap;fillColor=none;" parent="1" vertex="1">
          <mxGeometry x="370" y="230" width="320" height="400" as="geometry" />
        </mxCell>
        <mxCell id="XFUY8K0ZkMKYwquzWxu0-31" style="edgeStyle=orthogonalEdgeStyle;rounded=0;orthogonalLoop=1;jettySize=auto;html=1;exitX=1;exitY=0.5;exitDx=0;exitDy=0;dashed=1;strokeColor=default;align=center;verticalAlign=middle;fontFamily=Helvetica;fontSize=12;fontColor=default;fontStyle=4;labelBackgroundColor=default;endArrow=classic;" parent="1" source="XFUY8K0ZkMKYwquzWxu0-26" target="XFUY8K0ZkMKYwquzWxu0-30" edge="1">
          <mxGeometry relative="1" as="geometry" />
        </mxCell>
        <mxCell id="XFUY8K0ZkMKYwquzWxu0-34" style="edgeStyle=orthogonalEdgeStyle;rounded=0;orthogonalLoop=1;jettySize=auto;html=1;dashed=1;strokeColor=default;align=center;verticalAlign=middle;fontFamily=Helvetica;fontSize=12;fontColor=default;fontStyle=4;labelBackgroundColor=default;endArrow=classic;" parent="1" source="XFUY8K0ZkMKYwquzWxu0-39" target="XFUY8K0ZkMKYwquzWxu0-33" edge="1">
          <mxGeometry relative="1" as="geometry" />
        </mxCell>
        <mxCell id="XFUY8K0ZkMKYwquzWxu0-35" value="DB Requsets" style="edgeLabel;html=1;align=center;verticalAlign=middle;resizable=0;points=[];strokeColor=default;spacingLeft=2;spacingRight=12;spacingTop=8;fontFamily=Helvetica;fontSize=12;fontColor=default;fontStyle=4;labelBackgroundColor=default;fillColor=none;" parent="XFUY8K0ZkMKYwquzWxu0-34" vertex="1" connectable="0">
          <mxGeometry x="-0.2172" y="-1" relative="1" as="geometry">
            <mxPoint x="19" y="-14" as="offset" />
          </mxGeometry>
        </mxCell>
        <mxCell id="XFUY8K0ZkMKYwquzWxu0-26" value="API - сервер" style="shape=module;align=left;spacingLeft=20;align=center;verticalAlign=top;whiteSpace=wrap;html=1;strokeColor=default;spacingRight=12;spacingTop=8;fontFamily=Helvetica;fontSize=12;fontColor=default;fontStyle=4;fillColor=none;" parent="1" vertex="1">
          <mxGeometry x="394" y="290" width="96" height="70" as="geometry" />
        </mxCell>
        <mxCell id="XFUY8K0ZkMKYwquzWxu0-29" value="&lt;div style=&quot;text-align: center;&quot;&gt;Сервер аутентификации&lt;/div&gt;" style="verticalAlign=top;align=left;spacingTop=8;spacingLeft=2;spacingRight=12;shape=cube;size=10;direction=south;fontStyle=4;html=1;whiteSpace=wrap;fillColor=none;" parent="1" vertex="1">
          <mxGeometry x="560" y="40" width="180" height="130" as="geometry" />
        </mxCell>
        <mxCell id="XFUY8K0ZkMKYwquzWxu0-30" value="Аутентификатор" style="shape=module;align=left;spacingLeft=20;align=center;verticalAlign=top;whiteSpace=wrap;html=1;strokeColor=default;spacingRight=12;spacingTop=8;fontFamily=Helvetica;fontSize=12;fontColor=default;fontStyle=4;fillColor=none;" parent="1" vertex="1">
          <mxGeometry x="570" y="80" width="150" height="50" as="geometry" />
        </mxCell>
        <mxCell id="XFUY8K0ZkMKYwquzWxu0-32" value="&lt;div style=&quot;text-align: center;&quot;&gt;Сервер базы данных&lt;/div&gt;" style="verticalAlign=top;align=left;spacingTop=8;spacingLeft=2;spacingRight=12;shape=cube;size=10;direction=south;fontStyle=4;html=1;whiteSpace=wrap;fillColor=none;" parent="1" vertex="1">
          <mxGeometry x="80" y="280" width="180" height="130" as="geometry" />
        </mxCell>
        <mxCell id="XFUY8K0ZkMKYwquzWxu0-33" value="DB" style="shape=cylinder3;whiteSpace=wrap;html=1;boundedLbl=1;backgroundOutline=1;size=15;strokeColor=default;align=left;verticalAlign=top;spacingLeft=2;spacingRight=12;spacingTop=8;fontFamily=Helvetica;fontSize=12;fontColor=default;fontStyle=4;labelBackgroundColor=default;fillColor=none;" parent="1" vertex="1">
          <mxGeometry x="120" y="320" width="60" height="70" as="geometry" />
        </mxCell>
        <mxCell id="XFUY8K0ZkMKYwquzWxu0-36" value="Система обработки видео" style="shape=module;align=left;spacingLeft=20;align=center;verticalAlign=top;whiteSpace=wrap;html=1;strokeColor=default;spacingRight=12;spacingTop=8;fontFamily=Helvetica;fontSize=12;fontColor=default;fontStyle=4;fillColor=none;" parent="1" vertex="1">
          <mxGeometry x="394" y="500" width="96" height="70" as="geometry" />
        </mxCell>
        <mxCell id="XFUY8K0ZkMKYwquzWxu0-37" value="Служба мониторинга" style="shape=module;align=left;spacingLeft=20;align=center;verticalAlign=top;whiteSpace=wrap;html=1;strokeColor=default;spacingRight=12;spacingTop=8;fontFamily=Helvetica;fontSize=12;fontColor=default;fontStyle=4;fillColor=none;" parent="1" vertex="1">
          <mxGeometry x="552" y="390" width="96" height="70" as="geometry" />
        </mxCell>
        <mxCell id="XFUY8K0ZkMKYwquzWxu0-38" value="Служба безопасности" style="shape=module;align=left;spacingLeft=20;align=center;verticalAlign=top;whiteSpace=wrap;html=1;strokeColor=default;spacingRight=12;spacingTop=8;fontFamily=Helvetica;fontSize=12;fontColor=default;fontStyle=4;fillColor=none;" parent="1" vertex="1">
          <mxGeometry x="540" y="500" width="120" height="70" as="geometry" />
        </mxCell>
        <mxCell id="XFUY8K0ZkMKYwquzWxu0-39" value="СУБД" style="shape=module;align=left;spacingLeft=20;align=center;verticalAlign=top;whiteSpace=wrap;html=1;strokeColor=default;spacingRight=12;spacingTop=8;fontFamily=Helvetica;fontSize=12;fontColor=default;fontStyle=4;fillColor=none;" parent="1" vertex="1">
          <mxGeometry x="397" y="407.5" width="96" height="45" as="geometry" />
        </mxCell>
      </root>
    </mxGraphModel>
  </diagram>
  <diagram id="jLr0vTlXlrVqJIQxBke5" name="деятельности">
    <mxGraphModel dx="780" dy="504" grid="1" gridSize="10" guides="1" tooltips="1" connect="1" arrows="1" fold="1" page="1" pageScale="1" pageWidth="827" pageHeight="1169" math="0" shadow="0">
      <root>
        <mxCell id="0" />
        <mxCell id="1" parent="0" />
        <mxCell id="WqmRdjT312pkbCLBcs47-1" value="" style="rounded=0;dashed=0;container=0;collapsible=0;recursiveResize=0;strokeColor=default;align=center;verticalAlign=top;spacingLeft=2;spacingRight=12;spacingTop=8;fontFamily=Helvetica;fontSize=12;fontColor=default;fontStyle=4;labelBackgroundColor=default;fillColor=none;" parent="1" vertex="1">
          <mxGeometry x="110" y="90" width="160" height="1530" as="geometry" />
        </mxCell>
        <mxCell id="Qydfie4eadQSiok1vRWo-6" style="edgeStyle=orthogonalEdgeStyle;rounded=0;orthogonalLoop=1;jettySize=auto;html=1;exitX=0.5;exitY=1;exitDx=0;exitDy=0;dashed=1;strokeColor=default;align=center;verticalAlign=middle;fontFamily=Helvetica;fontSize=12;fontColor=default;fontStyle=4;labelBackgroundColor=default;endArrow=none;endFill=0;" parent="WqmRdjT312pkbCLBcs47-1" source="WqmRdjT312pkbCLBcs47-2" target="Qydfie4eadQSiok1vRWo-5" edge="1">
          <mxGeometry relative="1" as="geometry" />
        </mxCell>
        <mxCell id="WqmRdjT312pkbCLBcs47-2" value="Клиентское приложение" style="rounded=0;dashed=0;whiteSpace=wrap;html=1;strokeColor=default;align=center;verticalAlign=top;spacingLeft=2;spacingRight=12;spacingTop=8;fontFamily=Helvetica;fontSize=12;fontColor=default;fontStyle=4;labelBackgroundColor=default;fillColor=none;" parent="WqmRdjT312pkbCLBcs47-1" vertex="1">
          <mxGeometry x="30" y="10" width="100" height="50" as="geometry" />
        </mxCell>
        <mxCell id="GheW1eStbhhnlO8QK8pF-2" style="edgeStyle=orthogonalEdgeStyle;rounded=0;orthogonalLoop=1;jettySize=auto;html=1;exitX=0.5;exitY=1;exitDx=0;exitDy=0;dashed=1;strokeColor=default;align=center;verticalAlign=middle;fontFamily=Helvetica;fontSize=12;fontColor=default;fontStyle=4;labelBackgroundColor=default;endArrow=none;endFill=0;" parent="WqmRdjT312pkbCLBcs47-1" source="Qydfie4eadQSiok1vRWo-5" target="GheW1eStbhhnlO8QK8pF-1" edge="1">
          <mxGeometry relative="1" as="geometry" />
        </mxCell>
        <mxCell id="Qydfie4eadQSiok1vRWo-5" value="Запуск клиентского приложения" style="rounded=1;whiteSpace=wrap;html=1;strokeColor=default;align=center;verticalAlign=top;spacingLeft=2;spacingRight=12;spacingTop=8;fontFamily=Helvetica;fontSize=12;fontColor=default;fontStyle=4;labelBackgroundColor=default;fillColor=none;" parent="WqmRdjT312pkbCLBcs47-1" vertex="1">
          <mxGeometry x="20" y="80" width="120" height="60" as="geometry" />
        </mxCell>
        <mxCell id="GheW1eStbhhnlO8QK8pF-1" value="Ввод учетных данных" style="rounded=1;whiteSpace=wrap;html=1;strokeColor=default;align=center;verticalAlign=top;spacingLeft=2;spacingRight=12;spacingTop=8;fontFamily=Helvetica;fontSize=12;fontColor=default;fontStyle=4;labelBackgroundColor=default;fillColor=none;" parent="WqmRdjT312pkbCLBcs47-1" vertex="1">
          <mxGeometry x="20" y="170" width="120" height="60" as="geometry" />
        </mxCell>
        <mxCell id="GheW1eStbhhnlO8QK8pF-13" value="" style="ellipse;html=1;shape=endState;fillColor=strokeColor;strokeColor=default;align=center;verticalAlign=top;spacingLeft=2;spacingRight=12;spacingTop=8;fontFamily=Helvetica;fontSize=12;fontColor=default;fontStyle=4;labelBackgroundColor=default;" parent="WqmRdjT312pkbCLBcs47-1" vertex="1">
          <mxGeometry x="65" y="285" width="30" height="30" as="geometry" />
        </mxCell>
        <mxCell id="hRJyyrMpHsoHoFT4ANL_-38" style="edgeStyle=orthogonalEdgeStyle;rounded=0;orthogonalLoop=1;jettySize=auto;html=1;exitX=0.5;exitY=1;exitDx=0;exitDy=0;entryX=0.5;entryY=0;entryDx=0;entryDy=0;dashed=1;" parent="WqmRdjT312pkbCLBcs47-1" source="q4OkbZQ2m--t37gyNbX5-26" target="hRJyyrMpHsoHoFT4ANL_-37" edge="1">
          <mxGeometry relative="1" as="geometry" />
        </mxCell>
        <mxCell id="q4OkbZQ2m--t37gyNbX5-26" value="Выбор видео" style="rounded=1;whiteSpace=wrap;html=1;strokeColor=default;align=center;verticalAlign=top;spacingLeft=2;spacingRight=12;spacingTop=8;fontFamily=Helvetica;fontSize=12;fontColor=default;fontStyle=4;labelBackgroundColor=default;fillColor=none;" parent="WqmRdjT312pkbCLBcs47-1" vertex="1">
          <mxGeometry x="10" y="495" width="120" height="45" as="geometry" />
        </mxCell>
        <mxCell id="hRJyyrMpHsoHoFT4ANL_-1" value="Воспроизведение части видео" style="rounded=1;whiteSpace=wrap;html=1;strokeColor=default;align=center;verticalAlign=top;spacingLeft=2;spacingRight=12;spacingTop=8;fontFamily=Helvetica;fontSize=12;fontColor=default;fontStyle=4;labelBackgroundColor=default;fillColor=none;" parent="WqmRdjT312pkbCLBcs47-1" vertex="1">
          <mxGeometry x="20" y="1160" width="120" height="60" as="geometry" />
        </mxCell>
        <mxCell id="q4OkbZQ2m--t37gyNbX5-47" value="Расшифровка&lt;div&gt;видео&lt;/div&gt;" style="rounded=1;whiteSpace=wrap;html=1;strokeColor=default;align=center;verticalAlign=top;spacingLeft=2;spacingRight=12;spacingTop=8;fontFamily=Helvetica;fontSize=12;fontColor=default;fontStyle=4;labelBackgroundColor=default;fillColor=none;" parent="WqmRdjT312pkbCLBcs47-1" vertex="1">
          <mxGeometry x="30" y="1050" width="120" height="60" as="geometry" />
        </mxCell>
        <mxCell id="hRJyyrMpHsoHoFT4ANL_-6" style="edgeStyle=orthogonalEdgeStyle;rounded=0;orthogonalLoop=1;jettySize=auto;html=1;exitX=0.5;exitY=1;exitDx=0;exitDy=0;entryX=0.591;entryY=0.038;entryDx=0;entryDy=0;entryPerimeter=0;dashed=1;" parent="WqmRdjT312pkbCLBcs47-1" source="q4OkbZQ2m--t37gyNbX5-47" target="hRJyyrMpHsoHoFT4ANL_-1" edge="1">
          <mxGeometry relative="1" as="geometry" />
        </mxCell>
        <mxCell id="hRJyyrMpHsoHoFT4ANL_-45" style="edgeStyle=orthogonalEdgeStyle;rounded=0;orthogonalLoop=1;jettySize=auto;html=1;exitX=0.5;exitY=1;exitDx=0;exitDy=0;entryX=0.5;entryY=0;entryDx=0;entryDy=0;dashed=1;" parent="WqmRdjT312pkbCLBcs47-1" source="hRJyyrMpHsoHoFT4ANL_-37" target="hRJyyrMpHsoHoFT4ANL_-44" edge="1">
          <mxGeometry relative="1" as="geometry" />
        </mxCell>
        <mxCell id="hRJyyrMpHsoHoFT4ANL_-46" value="нет" style="edgeLabel;html=1;align=center;verticalAlign=middle;resizable=0;points=[];" parent="hRJyyrMpHsoHoFT4ANL_-45" vertex="1" connectable="0">
          <mxGeometry x="-0.103" y="1" relative="1" as="geometry">
            <mxPoint as="offset" />
          </mxGeometry>
        </mxCell>
        <mxCell id="hRJyyrMpHsoHoFT4ANL_-37" value="Нажата кнопка&lt;div&gt;выхода?&lt;/div&gt;" style="rhombus;whiteSpace=wrap;html=1;" parent="WqmRdjT312pkbCLBcs47-1" vertex="1">
          <mxGeometry x="30" y="580" width="80" height="60" as="geometry" />
        </mxCell>
        <mxCell id="hRJyyrMpHsoHoFT4ANL_-40" style="edgeStyle=orthogonalEdgeStyle;rounded=0;orthogonalLoop=1;jettySize=auto;html=1;exitX=0.5;exitY=1;exitDx=0;exitDy=0;" parent="WqmRdjT312pkbCLBcs47-1" source="hRJyyrMpHsoHoFT4ANL_-37" target="hRJyyrMpHsoHoFT4ANL_-37" edge="1">
          <mxGeometry relative="1" as="geometry" />
        </mxCell>
        <mxCell id="hRJyyrMpHsoHoFT4ANL_-44" value="" style="ellipse;html=1;shape=endState;fillColor=strokeColor;strokeColor=default;align=center;verticalAlign=top;spacingLeft=2;spacingRight=12;spacingTop=8;fontFamily=Helvetica;fontSize=12;fontColor=default;fontStyle=4;labelBackgroundColor=default;" parent="WqmRdjT312pkbCLBcs47-1" vertex="1">
          <mxGeometry x="55" y="700" width="30" height="30" as="geometry" />
        </mxCell>
        <mxCell id="Qydfie4eadQSiok1vRWo-1" value="" style="rounded=0;dashed=0;container=0;collapsible=0;recursiveResize=0;strokeColor=default;align=center;verticalAlign=top;spacingLeft=2;spacingRight=12;spacingTop=8;fontFamily=Helvetica;fontSize=12;fontColor=default;fontStyle=4;labelBackgroundColor=default;fillColor=none;" parent="1" vertex="1">
          <mxGeometry x="270" y="90" width="160" height="1530" as="geometry" />
        </mxCell>
        <mxCell id="Qydfie4eadQSiok1vRWo-2" value="Сервер веб приложения" style="rounded=0;dashed=0;whiteSpace=wrap;html=1;strokeColor=default;align=center;verticalAlign=top;spacingLeft=2;spacingRight=12;spacingTop=8;fontFamily=Helvetica;fontSize=12;fontColor=default;fontStyle=4;labelBackgroundColor=default;fillColor=none;" parent="Qydfie4eadQSiok1vRWo-1" vertex="1">
          <mxGeometry x="30" y="10" width="100" height="50" as="geometry" />
        </mxCell>
        <mxCell id="GheW1eStbhhnlO8QK8pF-3" value="Прием учетных данных, отправка на auth сервер" style="rounded=1;whiteSpace=wrap;html=1;strokeColor=default;align=center;verticalAlign=top;spacingLeft=2;spacingRight=12;spacingTop=8;fontFamily=Helvetica;fontSize=12;fontColor=default;fontStyle=4;labelBackgroundColor=default;fillColor=none;" parent="Qydfie4eadQSiok1vRWo-1" vertex="1">
          <mxGeometry x="18.75" y="170" width="120" height="60" as="geometry" />
        </mxCell>
        <mxCell id="q4OkbZQ2m--t37gyNbX5-5" style="edgeStyle=orthogonalEdgeStyle;rounded=0;orthogonalLoop=1;jettySize=auto;html=1;exitX=0.5;exitY=1;exitDx=0;exitDy=0;dashed=1;strokeColor=default;align=center;verticalAlign=middle;fontFamily=Helvetica;fontSize=12;fontColor=default;fontStyle=4;labelBackgroundColor=default;endArrow=classic;endFill=1;" parent="Qydfie4eadQSiok1vRWo-1" source="GheW1eStbhhnlO8QK8pF-11" target="q4OkbZQ2m--t37gyNbX5-4" edge="1">
          <mxGeometry relative="1" as="geometry" />
        </mxCell>
        <mxCell id="q4OkbZQ2m--t37gyNbX5-6" value="да" style="edgeLabel;html=1;align=center;verticalAlign=middle;resizable=0;points=[];strokeColor=default;spacingLeft=2;spacingRight=12;spacingTop=8;fontFamily=Helvetica;fontSize=12;fontColor=default;fontStyle=4;labelBackgroundColor=default;fillColor=none;" parent="q4OkbZQ2m--t37gyNbX5-5" vertex="1" connectable="0">
          <mxGeometry x="-0.1069" relative="1" as="geometry">
            <mxPoint as="offset" />
          </mxGeometry>
        </mxCell>
        <mxCell id="GheW1eStbhhnlO8QK8pF-11" value="Успешно?" style="rhombus;strokeColor=default;align=center;verticalAlign=top;spacingLeft=2;spacingRight=12;spacingTop=8;fontFamily=Helvetica;fontSize=12;fontColor=default;fontStyle=4;labelBackgroundColor=default;fillColor=none;" parent="Qydfie4eadQSiok1vRWo-1" vertex="1">
          <mxGeometry x="51.25" y="270" width="57.5" height="60" as="geometry" />
        </mxCell>
        <mxCell id="q4OkbZQ2m--t37gyNbX5-12" style="edgeStyle=orthogonalEdgeStyle;rounded=0;orthogonalLoop=1;jettySize=auto;html=1;dashed=1;strokeColor=default;align=center;verticalAlign=middle;fontFamily=Helvetica;fontSize=12;fontColor=default;fontStyle=4;labelBackgroundColor=default;endArrow=classic;endFill=1;" parent="Qydfie4eadQSiok1vRWo-1" source="q4OkbZQ2m--t37gyNbX5-4" target="q4OkbZQ2m--t37gyNbX5-11" edge="1">
          <mxGeometry relative="1" as="geometry" />
        </mxCell>
        <mxCell id="q4OkbZQ2m--t37gyNbX5-4" value="" style="line;strokeWidth=4;html=1;perimeter=backbonePerimeter;points=[];outlineConnect=0;strokeColor=default;align=center;verticalAlign=top;spacingLeft=2;spacingRight=12;spacingTop=8;fontFamily=Helvetica;fontSize=12;fontColor=default;fontStyle=4;labelBackgroundColor=default;fillColor=none;" parent="Qydfie4eadQSiok1vRWo-1" vertex="1">
          <mxGeometry x="33.75" y="370" width="90" height="10" as="geometry" />
        </mxCell>
        <mxCell id="q4OkbZQ2m--t37gyNbX5-11" value="Предоставление доступа" style="rounded=1;whiteSpace=wrap;html=1;strokeColor=default;align=center;verticalAlign=top;spacingLeft=2;spacingRight=12;spacingTop=8;fontFamily=Helvetica;fontSize=12;fontColor=default;fontStyle=4;labelBackgroundColor=default;fillColor=none;" parent="Qydfie4eadQSiok1vRWo-1" vertex="1">
          <mxGeometry x="20" y="410" width="120" height="60" as="geometry" />
        </mxCell>
        <mxCell id="q4OkbZQ2m--t37gyNbX5-37" style="edgeStyle=orthogonalEdgeStyle;rounded=0;orthogonalLoop=1;jettySize=auto;html=1;dashed=1;strokeColor=default;align=center;verticalAlign=middle;fontFamily=Helvetica;fontSize=12;fontColor=default;fontStyle=4;labelBackgroundColor=default;endArrow=classic;endFill=1;" parent="Qydfie4eadQSiok1vRWo-1" source="q4OkbZQ2m--t37gyNbX5-34" target="q4OkbZQ2m--t37gyNbX5-36" edge="1">
          <mxGeometry relative="1" as="geometry" />
        </mxCell>
        <mxCell id="q4OkbZQ2m--t37gyNbX5-34" value="Прием данных о выбранном видео" style="rounded=1;whiteSpace=wrap;html=1;strokeColor=default;align=center;verticalAlign=top;spacingLeft=2;spacingRight=12;spacingTop=8;fontFamily=Helvetica;fontSize=12;fontColor=default;fontStyle=4;labelBackgroundColor=default;fillColor=none;" parent="Qydfie4eadQSiok1vRWo-1" vertex="1">
          <mxGeometry x="20" y="630" width="120" height="40" as="geometry" />
        </mxCell>
        <mxCell id="q4OkbZQ2m--t37gyNbX5-36" value="" style="line;strokeWidth=4;html=1;perimeter=backbonePerimeter;points=[];outlineConnect=0;strokeColor=default;align=center;verticalAlign=top;spacingLeft=2;spacingRight=12;spacingTop=8;fontFamily=Helvetica;fontSize=12;fontColor=default;fontStyle=4;labelBackgroundColor=default;fillColor=none;" parent="Qydfie4eadQSiok1vRWo-1" vertex="1">
          <mxGeometry x="33.75" y="680" width="90" height="10" as="geometry" />
        </mxCell>
        <mxCell id="q4OkbZQ2m--t37gyNbX5-48" value="Успешно?" style="rhombus;strokeColor=default;align=center;verticalAlign=top;spacingLeft=2;spacingRight=12;spacingTop=8;fontFamily=Helvetica;fontSize=12;fontColor=default;fontStyle=4;labelBackgroundColor=default;fillColor=none;" parent="Qydfie4eadQSiok1vRWo-1" vertex="1">
          <mxGeometry x="51.25" y="870" width="57.5" height="60" as="geometry" />
        </mxCell>
        <mxCell id="hRJyyrMpHsoHoFT4ANL_-24" value="&#xa;Это последняя часть&#xa;видео или проигрывание&#xa;остановлено?" style="rhombus;strokeColor=default;align=center;verticalAlign=top;spacingLeft=2;spacingRight=12;spacingTop=8;fontFamily=Helvetica;fontSize=12;fontColor=default;fontStyle=4;labelBackgroundColor=default;fillColor=none;" parent="Qydfie4eadQSiok1vRWo-1" vertex="1">
          <mxGeometry x="20" y="1280" width="120" height="90" as="geometry" />
        </mxCell>
        <mxCell id="hRJyyrMpHsoHoFT4ANL_-25" style="edgeStyle=orthogonalEdgeStyle;rounded=0;orthogonalLoop=1;jettySize=auto;html=1;exitX=0.5;exitY=1;exitDx=0;exitDy=0;" parent="Qydfie4eadQSiok1vRWo-1" source="hRJyyrMpHsoHoFT4ANL_-24" target="hRJyyrMpHsoHoFT4ANL_-24" edge="1">
          <mxGeometry relative="1" as="geometry" />
        </mxCell>
        <mxCell id="Qydfie4eadQSiok1vRWo-3" value="" style="rounded=0;dashed=0;container=0;collapsible=0;recursiveResize=0;strokeColor=default;align=center;verticalAlign=top;spacingLeft=2;spacingRight=12;spacingTop=8;fontFamily=Helvetica;fontSize=12;fontColor=default;fontStyle=4;labelBackgroundColor=default;fillColor=none;" parent="1" vertex="1">
          <mxGeometry x="430" y="90" width="160" height="1530" as="geometry" />
        </mxCell>
        <mxCell id="Qydfie4eadQSiok1vRWo-4" value="Сервер аутентификации" style="rounded=0;dashed=0;whiteSpace=wrap;html=1;strokeColor=default;align=center;verticalAlign=top;spacingLeft=2;spacingRight=12;spacingTop=8;fontFamily=Helvetica;fontSize=12;fontColor=default;fontStyle=4;labelBackgroundColor=default;fillColor=none;" parent="Qydfie4eadQSiok1vRWo-3" vertex="1">
          <mxGeometry x="20" y="10" width="110" height="60" as="geometry" />
        </mxCell>
        <mxCell id="GheW1eStbhhnlO8QK8pF-6" value="Попытка аутентификации" style="rounded=1;whiteSpace=wrap;html=1;strokeColor=default;align=center;verticalAlign=top;spacingLeft=2;spacingRight=12;spacingTop=8;fontFamily=Helvetica;fontSize=12;fontColor=default;fontStyle=4;labelBackgroundColor=default;fillColor=none;" parent="Qydfie4eadQSiok1vRWo-3" vertex="1">
          <mxGeometry x="20" y="170" width="120" height="60" as="geometry" />
        </mxCell>
        <mxCell id="GheW1eStbhhnlO8QK8pF-10" style="edgeStyle=orthogonalEdgeStyle;rounded=0;orthogonalLoop=1;jettySize=auto;html=1;exitX=0.5;exitY=1;exitDx=0;exitDy=0;dashed=1;strokeColor=default;align=center;verticalAlign=middle;fontFamily=Helvetica;fontSize=12;fontColor=default;fontStyle=4;labelBackgroundColor=default;endArrow=classic;endFill=1;entryX=0.5;entryY=0;entryDx=0;entryDy=0;" parent="1" source="GheW1eStbhhnlO8QK8pF-6" target="GheW1eStbhhnlO8QK8pF-11" edge="1">
          <mxGeometry relative="1" as="geometry">
            <mxPoint x="350" y="430" as="targetPoint" />
          </mxGeometry>
        </mxCell>
        <mxCell id="GheW1eStbhhnlO8QK8pF-14" style="edgeStyle=orthogonalEdgeStyle;rounded=0;orthogonalLoop=1;jettySize=auto;html=1;exitX=0;exitY=0.5;exitDx=0;exitDy=0;dashed=1;strokeColor=default;align=center;verticalAlign=middle;fontFamily=Helvetica;fontSize=12;fontColor=default;fontStyle=4;labelBackgroundColor=default;endArrow=classic;endFill=1;" parent="1" source="GheW1eStbhhnlO8QK8pF-11" target="GheW1eStbhhnlO8QK8pF-13" edge="1">
          <mxGeometry relative="1" as="geometry" />
        </mxCell>
        <mxCell id="GheW1eStbhhnlO8QK8pF-15" value="нет" style="edgeLabel;html=1;align=center;verticalAlign=middle;resizable=0;points=[];strokeColor=default;spacingLeft=2;spacingRight=12;spacingTop=8;fontFamily=Helvetica;fontSize=12;fontColor=default;fontStyle=4;labelBackgroundColor=default;fillColor=none;" parent="GheW1eStbhhnlO8QK8pF-14" vertex="1" connectable="0">
          <mxGeometry x="-0.5111" y="-3" relative="1" as="geometry">
            <mxPoint as="offset" />
          </mxGeometry>
        </mxCell>
        <mxCell id="q4OkbZQ2m--t37gyNbX5-1" value="" style="rounded=0;dashed=0;container=0;collapsible=0;recursiveResize=0;strokeColor=default;align=center;verticalAlign=top;spacingLeft=2;spacingRight=12;spacingTop=8;fontFamily=Helvetica;fontSize=12;fontColor=default;fontStyle=4;labelBackgroundColor=default;fillColor=none;" parent="1" vertex="1">
          <mxGeometry x="590" y="90" width="160" height="1530" as="geometry" />
        </mxCell>
        <mxCell id="q4OkbZQ2m--t37gyNbX5-2" value="Система мониторинга" style="rounded=0;dashed=0;whiteSpace=wrap;html=1;strokeColor=default;align=center;verticalAlign=top;spacingLeft=2;spacingRight=12;spacingTop=8;fontFamily=Helvetica;fontSize=12;fontColor=default;fontStyle=4;labelBackgroundColor=default;fillColor=none;" parent="q4OkbZQ2m--t37gyNbX5-1" vertex="1">
          <mxGeometry x="20" y="10" width="110" height="60" as="geometry" />
        </mxCell>
        <mxCell id="q4OkbZQ2m--t37gyNbX5-3" value="Фиксация события" style="rounded=1;whiteSpace=wrap;html=1;strokeColor=default;align=center;verticalAlign=top;spacingLeft=2;spacingRight=12;spacingTop=8;fontFamily=Helvetica;fontSize=12;fontColor=default;fontStyle=4;labelBackgroundColor=default;fillColor=none;" parent="q4OkbZQ2m--t37gyNbX5-1" vertex="1">
          <mxGeometry x="15" y="345" width="120" height="60" as="geometry" />
        </mxCell>
        <mxCell id="q4OkbZQ2m--t37gyNbX5-38" value="Фиксация события" style="rounded=1;whiteSpace=wrap;html=1;strokeColor=default;align=center;verticalAlign=top;spacingLeft=2;spacingRight=12;spacingTop=8;fontFamily=Helvetica;fontSize=12;fontColor=default;fontStyle=4;labelBackgroundColor=default;fillColor=none;" parent="q4OkbZQ2m--t37gyNbX5-1" vertex="1">
          <mxGeometry x="20" y="655" width="120" height="60" as="geometry" />
        </mxCell>
        <mxCell id="q4OkbZQ2m--t37gyNbX5-8" style="edgeStyle=orthogonalEdgeStyle;rounded=0;orthogonalLoop=1;jettySize=auto;html=1;exitX=1;exitY=0.5;exitDx=0;exitDy=0;dashed=1;strokeColor=default;align=center;verticalAlign=middle;fontFamily=Helvetica;fontSize=12;fontColor=default;fontStyle=4;labelBackgroundColor=default;endArrow=classic;endFill=1;" parent="1" source="GheW1eStbhhnlO8QK8pF-1" target="GheW1eStbhhnlO8QK8pF-3" edge="1">
          <mxGeometry relative="1" as="geometry" />
        </mxCell>
        <mxCell id="q4OkbZQ2m--t37gyNbX5-9" style="edgeStyle=orthogonalEdgeStyle;rounded=0;orthogonalLoop=1;jettySize=auto;html=1;exitX=1;exitY=0.5;exitDx=0;exitDy=0;dashed=1;strokeColor=default;align=center;verticalAlign=middle;fontFamily=Helvetica;fontSize=12;fontColor=default;fontStyle=4;labelBackgroundColor=default;endArrow=classic;endFill=1;" parent="1" source="GheW1eStbhhnlO8QK8pF-3" target="GheW1eStbhhnlO8QK8pF-6" edge="1">
          <mxGeometry relative="1" as="geometry" />
        </mxCell>
        <mxCell id="q4OkbZQ2m--t37gyNbX5-10" style="edgeStyle=orthogonalEdgeStyle;rounded=0;orthogonalLoop=1;jettySize=auto;html=1;dashed=1;strokeColor=default;align=center;verticalAlign=middle;fontFamily=Helvetica;fontSize=12;fontColor=default;fontStyle=4;labelBackgroundColor=default;endArrow=classic;endFill=1;" parent="1" source="q4OkbZQ2m--t37gyNbX5-4" target="q4OkbZQ2m--t37gyNbX5-3" edge="1">
          <mxGeometry relative="1" as="geometry" />
        </mxCell>
        <mxCell id="q4OkbZQ2m--t37gyNbX5-29" value="" style="rounded=0;dashed=0;container=0;collapsible=0;recursiveResize=0;strokeColor=default;align=center;verticalAlign=top;spacingLeft=2;spacingRight=12;spacingTop=8;fontFamily=Helvetica;fontSize=12;fontColor=default;fontStyle=4;labelBackgroundColor=default;fillColor=none;" parent="1" vertex="1">
          <mxGeometry x="750" y="90" width="160" height="1530" as="geometry" />
        </mxCell>
        <mxCell id="q4OkbZQ2m--t37gyNbX5-30" value="API сервер" style="rounded=0;dashed=0;whiteSpace=wrap;html=1;strokeColor=default;align=center;verticalAlign=top;spacingLeft=2;spacingRight=12;spacingTop=8;fontFamily=Helvetica;fontSize=12;fontColor=default;fontStyle=4;labelBackgroundColor=default;fillColor=none;" parent="q4OkbZQ2m--t37gyNbX5-29" vertex="1">
          <mxGeometry x="20" y="10" width="110" height="60" as="geometry" />
        </mxCell>
        <mxCell id="q4OkbZQ2m--t37gyNbX5-31" value="Выборка и предоставление доступного контента" style="rounded=1;whiteSpace=wrap;html=1;strokeColor=default;align=center;verticalAlign=top;spacingLeft=2;spacingRight=12;spacingTop=8;fontFamily=Helvetica;fontSize=12;fontColor=default;fontStyle=4;labelBackgroundColor=default;fillColor=none;" parent="q4OkbZQ2m--t37gyNbX5-29" vertex="1">
          <mxGeometry x="30" y="395" width="120" height="90" as="geometry" />
        </mxCell>
        <mxCell id="q4OkbZQ2m--t37gyNbX5-40" value="Инициализация загрузки видео" style="rounded=1;whiteSpace=wrap;html=1;strokeColor=default;align=center;verticalAlign=top;spacingLeft=2;spacingRight=12;spacingTop=8;fontFamily=Helvetica;fontSize=12;fontColor=default;fontStyle=4;labelBackgroundColor=default;fillColor=none;" parent="q4OkbZQ2m--t37gyNbX5-29" vertex="1">
          <mxGeometry x="20" y="710" width="120" height="60" as="geometry" />
        </mxCell>
        <mxCell id="q4OkbZQ2m--t37gyNbX5-32" style="edgeStyle=orthogonalEdgeStyle;rounded=0;orthogonalLoop=1;jettySize=auto;html=1;entryX=0;entryY=0.5;entryDx=0;entryDy=0;dashed=1;strokeColor=default;align=center;verticalAlign=middle;fontFamily=Helvetica;fontSize=12;fontColor=default;fontStyle=4;labelBackgroundColor=default;endArrow=classic;endFill=1;" parent="1" source="q4OkbZQ2m--t37gyNbX5-11" target="q4OkbZQ2m--t37gyNbX5-31" edge="1">
          <mxGeometry relative="1" as="geometry" />
        </mxCell>
        <mxCell id="q4OkbZQ2m--t37gyNbX5-39" style="edgeStyle=orthogonalEdgeStyle;rounded=0;orthogonalLoop=1;jettySize=auto;html=1;dashed=1;strokeColor=default;align=center;verticalAlign=middle;fontFamily=Helvetica;fontSize=12;fontColor=default;fontStyle=4;labelBackgroundColor=default;endArrow=classic;endFill=1;entryX=0;entryY=0.5;entryDx=0;entryDy=0;" parent="1" source="q4OkbZQ2m--t37gyNbX5-36" target="q4OkbZQ2m--t37gyNbX5-38" edge="1">
          <mxGeometry relative="1" as="geometry">
            <Array as="points">
              <mxPoint x="610" y="775" />
            </Array>
          </mxGeometry>
        </mxCell>
        <mxCell id="q4OkbZQ2m--t37gyNbX5-41" style="edgeStyle=orthogonalEdgeStyle;rounded=0;orthogonalLoop=1;jettySize=auto;html=1;entryX=0;entryY=0.5;entryDx=0;entryDy=0;dashed=1;strokeColor=default;align=center;verticalAlign=middle;fontFamily=Helvetica;fontSize=12;fontColor=default;fontStyle=4;labelBackgroundColor=default;endArrow=classic;endFill=1;" parent="1" source="q4OkbZQ2m--t37gyNbX5-36" target="q4OkbZQ2m--t37gyNbX5-40" edge="1">
          <mxGeometry relative="1" as="geometry">
            <Array as="points">
              <mxPoint x="349" y="830" />
            </Array>
          </mxGeometry>
        </mxCell>
        <mxCell id="q4OkbZQ2m--t37gyNbX5-42" value="" style="rounded=0;dashed=0;container=0;collapsible=0;recursiveResize=0;strokeColor=default;align=center;verticalAlign=top;spacingLeft=2;spacingRight=12;spacingTop=8;fontFamily=Helvetica;fontSize=12;fontColor=default;fontStyle=4;labelBackgroundColor=default;fillColor=none;" parent="1" vertex="1">
          <mxGeometry x="910" y="90" width="160" height="1530" as="geometry" />
        </mxCell>
        <mxCell id="q4OkbZQ2m--t37gyNbX5-43" value="DB" style="rounded=0;dashed=0;whiteSpace=wrap;html=1;strokeColor=default;align=center;verticalAlign=top;spacingLeft=2;spacingRight=12;spacingTop=8;fontFamily=Helvetica;fontSize=12;fontColor=default;fontStyle=4;labelBackgroundColor=default;fillColor=none;" parent="q4OkbZQ2m--t37gyNbX5-42" vertex="1">
          <mxGeometry x="20" y="10" width="110" height="60" as="geometry" />
        </mxCell>
        <mxCell id="q4OkbZQ2m--t37gyNbX5-45" value="Загрузка части видео" style="rounded=1;whiteSpace=wrap;html=1;strokeColor=default;align=center;verticalAlign=top;spacingLeft=2;spacingRight=12;spacingTop=8;fontFamily=Helvetica;fontSize=12;fontColor=default;fontStyle=4;labelBackgroundColor=default;fillColor=none;" parent="q4OkbZQ2m--t37gyNbX5-42" vertex="1">
          <mxGeometry x="20" y="760" width="120" height="60" as="geometry" />
        </mxCell>
        <mxCell id="q4OkbZQ2m--t37gyNbX5-46" style="edgeStyle=orthogonalEdgeStyle;rounded=0;orthogonalLoop=1;jettySize=auto;html=1;exitX=0.5;exitY=1;exitDx=0;exitDy=0;dashed=1;strokeColor=default;align=center;verticalAlign=middle;fontFamily=Helvetica;fontSize=12;fontColor=default;fontStyle=4;labelBackgroundColor=default;endArrow=classic;endFill=1;" parent="1" source="q4OkbZQ2m--t37gyNbX5-40" target="q4OkbZQ2m--t37gyNbX5-45" edge="1">
          <mxGeometry relative="1" as="geometry" />
        </mxCell>
        <mxCell id="q4OkbZQ2m--t37gyNbX5-49" style="edgeStyle=orthogonalEdgeStyle;rounded=0;orthogonalLoop=1;jettySize=auto;html=1;exitX=0.5;exitY=1;exitDx=0;exitDy=0;entryX=1;entryY=0.5;entryDx=0;entryDy=0;dashed=1;strokeColor=default;align=center;verticalAlign=middle;fontFamily=Helvetica;fontSize=12;fontColor=default;fontStyle=4;labelBackgroundColor=default;endArrow=classic;endFill=1;" parent="1" source="q4OkbZQ2m--t37gyNbX5-45" target="q4OkbZQ2m--t37gyNbX5-48" edge="1">
          <mxGeometry relative="1" as="geometry" />
        </mxCell>
        <mxCell id="Je4M81AEaSiRV0pwZfxF-2" style="edgeStyle=orthogonalEdgeStyle;rounded=0;orthogonalLoop=1;jettySize=auto;html=1;exitX=0;exitY=0.5;exitDx=0;exitDy=0;dashed=1;entryX=0;entryY=0.75;entryDx=0;entryDy=0;" parent="1" source="q4OkbZQ2m--t37gyNbX5-48" target="q4OkbZQ2m--t37gyNbX5-45" edge="1">
          <mxGeometry relative="1" as="geometry">
            <mxPoint x="195" y="990" as="targetPoint" />
          </mxGeometry>
        </mxCell>
        <mxCell id="Je4M81AEaSiRV0pwZfxF-3" value="нет" style="edgeLabel;html=1;align=center;verticalAlign=middle;resizable=0;points=[];" parent="Je4M81AEaSiRV0pwZfxF-2" vertex="1" connectable="0">
          <mxGeometry x="0.3495" y="2" relative="1" as="geometry">
            <mxPoint as="offset" />
          </mxGeometry>
        </mxCell>
        <mxCell id="hRJyyrMpHsoHoFT4ANL_-7" style="edgeStyle=orthogonalEdgeStyle;rounded=0;orthogonalLoop=1;jettySize=auto;html=1;exitX=0.5;exitY=1;exitDx=0;exitDy=0;dashed=1;" parent="1" source="q4OkbZQ2m--t37gyNbX5-48" target="q4OkbZQ2m--t37gyNbX5-47" edge="1">
          <mxGeometry relative="1" as="geometry" />
        </mxCell>
        <mxCell id="hRJyyrMpHsoHoFT4ANL_-8" value="да&lt;div&gt;&lt;br&gt;&lt;/div&gt;" style="edgeLabel;html=1;align=center;verticalAlign=middle;resizable=0;points=[];" parent="hRJyyrMpHsoHoFT4ANL_-7" vertex="1" connectable="0">
          <mxGeometry x="-0.321" y="3" relative="1" as="geometry">
            <mxPoint as="offset" />
          </mxGeometry>
        </mxCell>
        <mxCell id="hRJyyrMpHsoHoFT4ANL_-10" style="edgeStyle=orthogonalEdgeStyle;rounded=0;orthogonalLoop=1;jettySize=auto;html=1;exitX=0.5;exitY=1;exitDx=0;exitDy=0;entryX=0;entryY=0.5;entryDx=0;entryDy=0;dashed=1;" parent="1" source="hRJyyrMpHsoHoFT4ANL_-1" target="hRJyyrMpHsoHoFT4ANL_-24" edge="1">
          <mxGeometry relative="1" as="geometry">
            <mxPoint x="190" y="1370" as="targetPoint" />
          </mxGeometry>
        </mxCell>
        <mxCell id="hRJyyrMpHsoHoFT4ANL_-29" style="edgeStyle=orthogonalEdgeStyle;rounded=0;orthogonalLoop=1;jettySize=auto;html=1;exitX=1;exitY=0.5;exitDx=0;exitDy=0;entryX=0.75;entryY=1;entryDx=0;entryDy=0;dashed=1;" parent="1" source="hRJyyrMpHsoHoFT4ANL_-24" target="q4OkbZQ2m--t37gyNbX5-45" edge="1">
          <mxGeometry relative="1" as="geometry" />
        </mxCell>
        <mxCell id="hRJyyrMpHsoHoFT4ANL_-30" value="нет" style="edgeLabel;html=1;align=center;verticalAlign=middle;resizable=0;points=[];" parent="hRJyyrMpHsoHoFT4ANL_-29" vertex="1" connectable="0">
          <mxGeometry x="-0.5405" y="1" relative="1" as="geometry">
            <mxPoint as="offset" />
          </mxGeometry>
        </mxCell>
        <mxCell id="hRJyyrMpHsoHoFT4ANL_-33" style="edgeStyle=orthogonalEdgeStyle;rounded=0;orthogonalLoop=1;jettySize=auto;html=1;exitX=0.5;exitY=1;exitDx=0;exitDy=0;entryX=0;entryY=1;entryDx=0;entryDy=0;dashed=1;" parent="1" target="q4OkbZQ2m--t37gyNbX5-26" edge="1">
          <mxGeometry relative="1" as="geometry">
            <mxPoint x="340" y="1457.5" as="sourcePoint" />
            <mxPoint x="120" y="619.9999999999999" as="targetPoint" />
            <Array as="points">
              <mxPoint x="340" y="1480" />
              <mxPoint x="120" y="1480" />
            </Array>
          </mxGeometry>
        </mxCell>
        <mxCell id="hRJyyrMpHsoHoFT4ANL_-36" value="да" style="edgeLabel;html=1;align=center;verticalAlign=middle;resizable=0;points=[];" parent="hRJyyrMpHsoHoFT4ANL_-33" vertex="1" connectable="0">
          <mxGeometry x="-0.7273" y="1" relative="1" as="geometry">
            <mxPoint as="offset" />
          </mxGeometry>
        </mxCell>
        <mxCell id="hRJyyrMpHsoHoFT4ANL_-41" style="edgeStyle=orthogonalEdgeStyle;rounded=0;orthogonalLoop=1;jettySize=auto;html=1;exitX=0.5;exitY=1;exitDx=0;exitDy=0;entryX=1;entryY=0.75;entryDx=0;entryDy=0;dashed=1;" parent="1" source="q4OkbZQ2m--t37gyNbX5-31" target="q4OkbZQ2m--t37gyNbX5-26" edge="1">
          <mxGeometry relative="1" as="geometry" />
        </mxCell>
        <mxCell id="hRJyyrMpHsoHoFT4ANL_-42" style="edgeStyle=orthogonalEdgeStyle;rounded=0;orthogonalLoop=1;jettySize=auto;html=1;exitX=1;exitY=0.5;exitDx=0;exitDy=0;entryX=0.5;entryY=0;entryDx=0;entryDy=0;dashed=1;" parent="1" source="hRJyyrMpHsoHoFT4ANL_-37" target="q4OkbZQ2m--t37gyNbX5-34" edge="1">
          <mxGeometry relative="1" as="geometry" />
        </mxCell>
        <mxCell id="hRJyyrMpHsoHoFT4ANL_-43" value="нет" style="edgeLabel;html=1;align=center;verticalAlign=middle;resizable=0;points=[];" parent="hRJyyrMpHsoHoFT4ANL_-42" vertex="1" connectable="0">
          <mxGeometry x="-0.3042" y="-2" relative="1" as="geometry">
            <mxPoint as="offset" />
          </mxGeometry>
        </mxCell>
      </root>
    </mxGraphModel>
  </diagram>
  <diagram id="AzybquwBMM3MfIybTo6U" name="классов">
    <mxGraphModel dx="1820" dy="649" grid="1" gridSize="10" guides="1" tooltips="1" connect="1" arrows="1" fold="1" page="1" pageScale="1" pageWidth="827" pageHeight="1169" math="0" shadow="0">
      <root>
        <mxCell id="0" />
        <mxCell id="1" parent="0" />
        <mxCell id="Ve2_21Z7cvTOe2clJsp1-4" style="edgeStyle=orthogonalEdgeStyle;rounded=0;orthogonalLoop=1;jettySize=auto;html=1;dashed=1;strokeColor=default;align=center;verticalAlign=middle;fontFamily=Helvetica;fontSize=11;fontColor=default;labelBackgroundColor=default;endArrow=classic;entryX=0;entryY=0;entryDx=0;entryDy=0;" parent="1" source="ewIV58T0QRLVkaM0mS24-1" target="ewIV58T0QRLVkaM0mS24-33" edge="1">
          <mxGeometry relative="1" as="geometry" />
        </mxCell>
        <mxCell id="ewIV58T0QRLVkaM0mS24-1" value="User" style="swimlane;fontStyle=0;childLayout=stackLayout;horizontal=1;startSize=30;horizontalStack=0;resizeParent=1;resizeParentMax=0;resizeLast=0;collapsible=1;marginBottom=0;whiteSpace=wrap;html=1;" parent="1" vertex="1">
          <mxGeometry x="-180" y="300" width="230" height="210" as="geometry">
            <mxRectangle x="40" y="70" width="70" height="30" as="alternateBounds" />
          </mxGeometry>
        </mxCell>
        <mxCell id="ewIV58T0QRLVkaM0mS24-2" value="- userID: int" style="text;strokeColor=none;fillColor=none;align=left;verticalAlign=middle;spacingLeft=4;spacingRight=4;overflow=hidden;points=[[0,0.5],[1,0.5]];portConstraint=eastwest;rotatable=0;whiteSpace=wrap;html=1;" parent="ewIV58T0QRLVkaM0mS24-1" vertex="1">
          <mxGeometry y="30" width="230" height="30" as="geometry" />
        </mxCell>
        <mxCell id="ewIV58T0QRLVkaM0mS24-3" value="- username:string" style="text;strokeColor=none;fillColor=none;align=left;verticalAlign=middle;spacingLeft=4;spacingRight=4;overflow=hidden;points=[[0,0.5],[1,0.5]];portConstraint=eastwest;rotatable=0;whiteSpace=wrap;html=1;" parent="ewIV58T0QRLVkaM0mS24-1" vertex="1">
          <mxGeometry y="60" width="230" height="20" as="geometry" />
        </mxCell>
        <mxCell id="ewIV58T0QRLVkaM0mS24-4" value="- passwordHash:string" style="text;strokeColor=none;fillColor=none;align=left;verticalAlign=middle;spacingLeft=4;spacingRight=4;overflow=hidden;points=[[0,0.5],[1,0.5]];portConstraint=eastwest;rotatable=0;whiteSpace=wrap;html=1;" parent="ewIV58T0QRLVkaM0mS24-1" vertex="1">
          <mxGeometry y="80" width="230" height="30" as="geometry" />
        </mxCell>
        <mxCell id="ewIV58T0QRLVkaM0mS24-9" value="-country:Country" style="text;strokeColor=none;fillColor=none;align=left;verticalAlign=middle;spacingLeft=4;spacingRight=4;overflow=hidden;points=[[0,0.5],[1,0.5]];portConstraint=eastwest;rotatable=0;whiteSpace=wrap;html=1;" parent="ewIV58T0QRLVkaM0mS24-1" vertex="1">
          <mxGeometry y="110" width="230" height="20" as="geometry" />
        </mxCell>
        <mxCell id="wuAF2e8H0B_R8TCFY7p5-1" value="-age: int" style="text;strokeColor=none;fillColor=none;align=left;verticalAlign=middle;spacingLeft=4;spacingRight=4;overflow=hidden;points=[[0,0.5],[1,0.5]];portConstraint=eastwest;rotatable=0;whiteSpace=wrap;html=1;" parent="ewIV58T0QRLVkaM0mS24-1" vertex="1">
          <mxGeometry y="130" width="230" height="20" as="geometry" />
        </mxCell>
        <mxCell id="ewIV58T0QRLVkaM0mS24-10" value="+authorize(): boolean&lt;div&gt;+exit(): void&lt;/div&gt;" style="text;strokeColor=default;fillColor=none;align=left;verticalAlign=middle;spacingLeft=4;spacingRight=4;overflow=hidden;points=[[0,0.5],[1,0.5]];portConstraint=eastwest;rotatable=0;whiteSpace=wrap;html=1;perimeterSpacing=2;" parent="ewIV58T0QRLVkaM0mS24-1" vertex="1">
          <mxGeometry y="150" width="230" height="60" as="geometry" />
        </mxCell>
        <mxCell id="ewIV58T0QRLVkaM0mS24-14" value="Video" style="swimlane;fontStyle=0;childLayout=stackLayout;horizontal=1;startSize=30;horizontalStack=0;resizeParent=1;resizeParentMax=0;resizeLast=0;collapsible=1;marginBottom=0;whiteSpace=wrap;html=1;" parent="1" vertex="1">
          <mxGeometry x="-205" y="550" width="280" height="220" as="geometry">
            <mxRectangle x="40" y="70" width="70" height="30" as="alternateBounds" />
          </mxGeometry>
        </mxCell>
        <mxCell id="ewIV58T0QRLVkaM0mS24-15" value="-videoID:int" style="text;strokeColor=none;fillColor=none;align=left;verticalAlign=middle;spacingLeft=4;spacingRight=4;overflow=hidden;points=[[0,0.5],[1,0.5]];portConstraint=eastwest;rotatable=0;whiteSpace=wrap;html=1;" parent="ewIV58T0QRLVkaM0mS24-14" vertex="1">
          <mxGeometry y="30" width="280" height="30" as="geometry" />
        </mxCell>
        <mxCell id="ewIV58T0QRLVkaM0mS24-16" value="-title:string" style="text;strokeColor=none;fillColor=none;align=left;verticalAlign=middle;spacingLeft=4;spacingRight=4;overflow=hidden;points=[[0,0.5],[1,0.5]];portConstraint=eastwest;rotatable=0;whiteSpace=wrap;html=1;" parent="ewIV58T0QRLVkaM0mS24-14" vertex="1">
          <mxGeometry y="60" width="280" height="20" as="geometry" />
        </mxCell>
        <mxCell id="ewIV58T0QRLVkaM0mS24-17" value="&lt;div&gt;-description:string&lt;/div&gt;" style="text;strokeColor=none;fillColor=none;align=left;verticalAlign=middle;spacingLeft=4;spacingRight=4;overflow=hidden;points=[[0,0.5],[1,0.5]];portConstraint=eastwest;rotatable=0;whiteSpace=wrap;html=1;" parent="ewIV58T0QRLVkaM0mS24-14" vertex="1">
          <mxGeometry y="80" width="280" height="30" as="geometry" />
        </mxCell>
        <mxCell id="ewIV58T0QRLVkaM0mS24-18" value="-ageRestriction: int" style="text;strokeColor=none;fillColor=none;align=left;verticalAlign=middle;spacingLeft=4;spacingRight=4;overflow=hidden;points=[[0,0.5],[1,0.5]];portConstraint=eastwest;rotatable=0;whiteSpace=wrap;html=1;" parent="ewIV58T0QRLVkaM0mS24-14" vertex="1">
          <mxGeometry y="110" width="280" height="20" as="geometry" />
        </mxCell>
        <mxCell id="ewIV58T0QRLVkaM0mS24-21" value="-categories: List&amp;lt;string&amp;gt;" style="text;strokeColor=none;fillColor=none;align=left;verticalAlign=middle;spacingLeft=4;spacingRight=4;overflow=hidden;points=[[0,0.5],[1,0.5]];portConstraint=eastwest;rotatable=0;whiteSpace=wrap;html=1;" parent="ewIV58T0QRLVkaM0mS24-14" vertex="1">
          <mxGeometry y="130" width="280" height="20" as="geometry" />
        </mxCell>
        <mxCell id="ewIV58T0QRLVkaM0mS24-22" value="-encryptedData:string" style="text;strokeColor=none;fillColor=none;align=left;verticalAlign=middle;spacingLeft=4;spacingRight=4;overflow=hidden;points=[[0,0.5],[1,0.5]];portConstraint=eastwest;rotatable=0;whiteSpace=wrap;html=1;" parent="ewIV58T0QRLVkaM0mS24-14" vertex="1">
          <mxGeometry y="150" width="280" height="20" as="geometry" />
        </mxCell>
        <mxCell id="ewIV58T0QRLVkaM0mS24-23" value="+ getVideoSlice(size:int): string" style="text;strokeColor=default;fillColor=none;align=left;verticalAlign=middle;spacingLeft=4;spacingRight=4;overflow=hidden;points=[[0,0.5],[1,0.5]];portConstraint=eastwest;rotatable=0;whiteSpace=wrap;html=1;" parent="ewIV58T0QRLVkaM0mS24-14" vertex="1">
          <mxGeometry y="170" width="280" height="50" as="geometry" />
        </mxCell>
        <mxCell id="Ve2_21Z7cvTOe2clJsp1-5" style="edgeStyle=orthogonalEdgeStyle;rounded=0;orthogonalLoop=1;jettySize=auto;html=1;dashed=1;strokeColor=default;align=center;verticalAlign=middle;fontFamily=Helvetica;fontSize=11;fontColor=default;labelBackgroundColor=default;endArrow=diamondThin;endFill=0;" parent="1" source="ewIV58T0QRLVkaM0mS24-24" target="ewIV58T0QRLVkaM0mS24-1" edge="1">
          <mxGeometry relative="1" as="geometry" />
        </mxCell>
        <mxCell id="ewIV58T0QRLVkaM0mS24-24" value="Country" style="swimlane;fontStyle=0;childLayout=stackLayout;horizontal=1;startSize=30;horizontalStack=0;resizeParent=1;resizeParentMax=0;resizeLast=0;collapsible=1;marginBottom=0;whiteSpace=wrap;html=1;" parent="1" vertex="1">
          <mxGeometry x="-530" y="330" width="280" height="210" as="geometry">
            <mxRectangle x="40" y="70" width="70" height="30" as="alternateBounds" />
          </mxGeometry>
        </mxCell>
        <mxCell id="ewIV58T0QRLVkaM0mS24-25" value="-countryID:int" style="text;strokeColor=none;fillColor=none;align=left;verticalAlign=middle;spacingLeft=4;spacingRight=4;overflow=hidden;points=[[0,0.5],[1,0.5]];portConstraint=eastwest;rotatable=0;whiteSpace=wrap;html=1;" parent="ewIV58T0QRLVkaM0mS24-24" vertex="1">
          <mxGeometry y="30" width="280" height="30" as="geometry" />
        </mxCell>
        <mxCell id="ewIV58T0QRLVkaM0mS24-26" value="-name:string" style="text;strokeColor=none;fillColor=none;align=left;verticalAlign=middle;spacingLeft=4;spacingRight=4;overflow=hidden;points=[[0,0.5],[1,0.5]];portConstraint=eastwest;rotatable=0;whiteSpace=wrap;html=1;" parent="ewIV58T0QRLVkaM0mS24-24" vertex="1">
          <mxGeometry y="60" width="280" height="20" as="geometry" />
        </mxCell>
        <mxCell id="ewIV58T0QRLVkaM0mS24-27" value="&lt;div&gt;+hasAgeRestricted: boolean&lt;/div&gt;" style="text;strokeColor=none;fillColor=none;align=left;verticalAlign=middle;spacingLeft=4;spacingRight=4;overflow=hidden;points=[[0,0.5],[1,0.5]];portConstraint=eastwest;rotatable=0;whiteSpace=wrap;html=1;" parent="ewIV58T0QRLVkaM0mS24-24" vertex="1">
          <mxGeometry y="80" width="280" height="30" as="geometry" />
        </mxCell>
        <mxCell id="ewIV58T0QRLVkaM0mS24-28" value="-restrictionCategories:List&amp;lt;string&amp;gt;" style="text;strokeColor=none;fillColor=none;align=left;verticalAlign=middle;spacingLeft=4;spacingRight=4;overflow=hidden;points=[[0,0.5],[1,0.5]];portConstraint=eastwest;rotatable=0;whiteSpace=wrap;html=1;" parent="ewIV58T0QRLVkaM0mS24-24" vertex="1">
          <mxGeometry y="110" width="280" height="20" as="geometry" />
        </mxCell>
        <mxCell id="8rmRqPhXbB6uL-o8i5vP-15" value="-restrictionVideos:List&amp;lt;int&amp;gt;" style="text;strokeColor=none;fillColor=none;align=left;verticalAlign=middle;spacingLeft=4;spacingRight=4;overflow=hidden;points=[[0,0.5],[1,0.5]];portConstraint=eastwest;rotatable=0;whiteSpace=wrap;html=1;" parent="ewIV58T0QRLVkaM0mS24-24" vertex="1">
          <mxGeometry y="130" width="280" height="20" as="geometry" />
        </mxCell>
        <mxCell id="m2Z3Q-EMNkgj0kjl656z-1" value="+getRestrictionCategories(): List&amp;lt;string&amp;gt;&lt;div&gt;+getRestrictionVideos(): List&amp;lt;int&amp;gt;&lt;/div&gt;&lt;div&gt;+addRestrictionVideo(id:int): boolean&lt;span style=&quot;background-color: initial;&quot;&gt;&amp;nbsp;&lt;/span&gt;&lt;/div&gt;" style="text;strokeColor=default;fillColor=none;align=left;verticalAlign=middle;spacingLeft=4;spacingRight=4;overflow=hidden;points=[[0,0.5],[1,0.5]];portConstraint=eastwest;rotatable=0;whiteSpace=wrap;html=1;perimeterSpacing=2;" vertex="1" parent="ewIV58T0QRLVkaM0mS24-24">
          <mxGeometry y="150" width="280" height="60" as="geometry" />
        </mxCell>
        <mxCell id="ewIV58T0QRLVkaM0mS24-53" style="edgeStyle=orthogonalEdgeStyle;rounded=0;orthogonalLoop=1;jettySize=auto;html=1;dashed=1;" parent="1" source="ewIV58T0QRLVkaM0mS24-33" target="ewIV58T0QRLVkaM0mS24-39" edge="1">
          <mxGeometry relative="1" as="geometry" />
        </mxCell>
        <mxCell id="8rmRqPhXbB6uL-o8i5vP-14" style="edgeStyle=orthogonalEdgeStyle;rounded=0;orthogonalLoop=1;jettySize=auto;html=1;dashed=1;strokeColor=default;align=center;verticalAlign=middle;fontFamily=Helvetica;fontSize=11;fontColor=default;labelBackgroundColor=default;endArrow=none;endFill=0;startArrow=diamondThin;startFill=0;" parent="1" source="ewIV58T0QRLVkaM0mS24-33" target="ewIV58T0QRLVkaM0mS24-14" edge="1">
          <mxGeometry relative="1" as="geometry" />
        </mxCell>
        <mxCell id="ewIV58T0QRLVkaM0mS24-33" value="ContentManager" style="swimlane;fontStyle=0;childLayout=stackLayout;horizontal=1;startSize=30;horizontalStack=0;resizeParent=1;resizeParentMax=0;resizeLast=0;collapsible=1;marginBottom=0;whiteSpace=wrap;html=1;" parent="1" vertex="1">
          <mxGeometry x="160" y="480" width="216" height="180" as="geometry">
            <mxRectangle x="40" y="70" width="70" height="30" as="alternateBounds" />
          </mxGeometry>
        </mxCell>
        <mxCell id="ewIV58T0QRLVkaM0mS24-34" value="-videos:List&amp;lt;video&amp;gt;" style="text;strokeColor=none;fillColor=none;align=left;verticalAlign=middle;spacingLeft=4;spacingRight=4;overflow=hidden;points=[[0,0.5],[1,0.5]];portConstraint=eastwest;rotatable=0;whiteSpace=wrap;html=1;" parent="ewIV58T0QRLVkaM0mS24-33" vertex="1">
          <mxGeometry y="30" width="216" height="30" as="geometry" />
        </mxCell>
        <mxCell id="Ve2_21Z7cvTOe2clJsp1-7" value="+player:VideoPlayer" style="text;strokeColor=none;fillColor=none;align=left;verticalAlign=middle;spacingLeft=4;spacingRight=4;overflow=hidden;points=[[0,0.5],[1,0.5]];portConstraint=eastwest;rotatable=0;whiteSpace=wrap;html=1;" parent="ewIV58T0QRLVkaM0mS24-33" vertex="1">
          <mxGeometry y="60" width="216" height="30" as="geometry" />
        </mxCell>
        <mxCell id="ewIV58T0QRLVkaM0mS24-38" value="+uploadVideo(video:Video):boolean&lt;div&gt;+getVideoByID(id:int):Video&lt;/div&gt;&lt;div&gt;+playVideoByID(id:int):void&lt;/div&gt;&lt;div&gt;+getAllVideos():List&amp;lt;Video&amp;gt;&lt;/div&gt;" style="text;strokeColor=default;fillColor=none;align=left;verticalAlign=middle;spacingLeft=4;spacingRight=4;overflow=hidden;points=[[0,0.5],[1,0.5]];portConstraint=eastwest;rotatable=0;whiteSpace=wrap;html=1;" parent="ewIV58T0QRLVkaM0mS24-33" vertex="1">
          <mxGeometry y="90" width="216" height="90" as="geometry" />
        </mxCell>
        <mxCell id="ewIV58T0QRLVkaM0mS24-39" value="EncryptionService" style="swimlane;fontStyle=0;childLayout=stackLayout;horizontal=1;startSize=30;horizontalStack=0;resizeParent=1;resizeParentMax=0;resizeLast=0;collapsible=1;marginBottom=0;whiteSpace=wrap;html=1;" parent="1" vertex="1">
          <mxGeometry x="168" y="700" width="200" height="80" as="geometry">
            <mxRectangle x="40" y="70" width="70" height="30" as="alternateBounds" />
          </mxGeometry>
        </mxCell>
        <mxCell id="ewIV58T0QRLVkaM0mS24-41" value="+encrypt(data:string):string&lt;div&gt;+decrypt(encryptData:string)&lt;/div&gt;" style="text;strokeColor=default;fillColor=none;align=left;verticalAlign=middle;spacingLeft=4;spacingRight=4;overflow=hidden;points=[[0,0.5],[1,0.5]];portConstraint=eastwest;rotatable=0;whiteSpace=wrap;html=1;" parent="ewIV58T0QRLVkaM0mS24-39" vertex="1">
          <mxGeometry y="30" width="200" height="50" as="geometry" />
        </mxCell>
        <mxCell id="8rmRqPhXbB6uL-o8i5vP-1" value="UserAuthentificator" style="swimlane;fontStyle=0;childLayout=stackLayout;horizontal=1;startSize=30;horizontalStack=0;resizeParent=1;resizeParentMax=0;resizeLast=0;collapsible=1;marginBottom=0;whiteSpace=wrap;html=1;" parent="1" vertex="1">
          <mxGeometry x="-180" y="120" width="230" height="100" as="geometry">
            <mxRectangle x="40" y="70" width="70" height="30" as="alternateBounds" />
          </mxGeometry>
        </mxCell>
        <mxCell id="8rmRqPhXbB6uL-o8i5vP-2" value="&amp;nbsp;&amp;nbsp;" style="text;strokeColor=none;fillColor=none;align=left;verticalAlign=middle;spacingLeft=4;spacingRight=4;overflow=hidden;points=[[0,0.5],[1,0.5]];portConstraint=eastwest;rotatable=0;whiteSpace=wrap;html=1;" parent="8rmRqPhXbB6uL-o8i5vP-1" vertex="1">
          <mxGeometry y="30" width="230" height="30" as="geometry" />
        </mxCell>
        <mxCell id="8rmRqPhXbB6uL-o8i5vP-7" value="+authentificate(UserID: int): boolean" style="text;strokeColor=default;fillColor=none;align=left;verticalAlign=middle;spacingLeft=4;spacingRight=4;overflow=hidden;points=[[0,0.5],[1,0.5]];portConstraint=eastwest;rotatable=0;whiteSpace=wrap;html=1;perimeterSpacing=2;" parent="8rmRqPhXbB6uL-o8i5vP-1" vertex="1">
          <mxGeometry y="60" width="230" height="40" as="geometry" />
        </mxCell>
        <mxCell id="8rmRqPhXbB6uL-o8i5vP-8" style="edgeStyle=orthogonalEdgeStyle;rounded=0;orthogonalLoop=1;jettySize=auto;html=1;dashed=1;strokeColor=default;align=center;verticalAlign=middle;fontFamily=Helvetica;fontSize=11;fontColor=default;labelBackgroundColor=default;endArrow=block;endFill=1;" parent="1" source="ewIV58T0QRLVkaM0mS24-1" target="8rmRqPhXbB6uL-o8i5vP-1" edge="1">
          <mxGeometry relative="1" as="geometry" />
        </mxCell>
        <mxCell id="Ve2_21Z7cvTOe2clJsp1-6" style="edgeStyle=orthogonalEdgeStyle;rounded=0;orthogonalLoop=1;jettySize=auto;html=1;dashed=1;strokeColor=default;align=center;verticalAlign=middle;fontFamily=Helvetica;fontSize=11;fontColor=default;labelBackgroundColor=default;endArrow=diamondThin;endFill=1;" parent="1" source="Ve2_21Z7cvTOe2clJsp1-1" target="ewIV58T0QRLVkaM0mS24-33" edge="1">
          <mxGeometry relative="1" as="geometry" />
        </mxCell>
        <mxCell id="Ve2_21Z7cvTOe2clJsp1-1" value="VideoPlayer" style="swimlane;fontStyle=0;childLayout=stackLayout;horizontal=1;startSize=30;horizontalStack=0;resizeParent=1;resizeParentMax=0;resizeLast=0;collapsible=1;marginBottom=0;whiteSpace=wrap;html=1;" parent="1" vertex="1">
          <mxGeometry x="180" y="260" width="216" height="110" as="geometry">
            <mxRectangle x="40" y="70" width="70" height="30" as="alternateBounds" />
          </mxGeometry>
        </mxCell>
        <mxCell id="Ve2_21Z7cvTOe2clJsp1-2" value="- currentVideoSlice" style="text;strokeColor=none;fillColor=none;align=left;verticalAlign=middle;spacingLeft=4;spacingRight=4;overflow=hidden;points=[[0,0.5],[1,0.5]];portConstraint=eastwest;rotatable=0;whiteSpace=wrap;html=1;" parent="Ve2_21Z7cvTOe2clJsp1-1" vertex="1">
          <mxGeometry y="30" width="216" height="30" as="geometry" />
        </mxCell>
        <mxCell id="Ve2_21Z7cvTOe2clJsp1-3" value="+play():void&lt;div&gt;+setVideoSlice(slice:string):boolean&lt;/div&gt;" style="text;strokeColor=default;fillColor=none;align=left;verticalAlign=middle;spacingLeft=4;spacingRight=4;overflow=hidden;points=[[0,0.5],[1,0.5]];portConstraint=eastwest;rotatable=0;whiteSpace=wrap;html=1;" parent="Ve2_21Z7cvTOe2clJsp1-1" vertex="1">
          <mxGeometry y="60" width="216" height="50" as="geometry" />
        </mxCell>
      </root>
    </mxGraphModel>
  </diagram>
</mxfile>
